<?xml version="1.0" encoding="utf-8"?>
<!-- Generator: Adobe Illustrator 24.1.2, SVG Export Plug-In . SVG Version: 6.00 Build 0)  -->
<svg version="1.1" id="Layer_1" xmlns="http://www.w3.org/2000/svg" xmlns:xlink="http://www.w3.org/1999/xlink" x="0px" y="0px"
	 width="1920px" height="125px" viewBox="0 0 1920 125" style="enable-background:new 0 0 1920 125;" xml:space="preserve">
<style type="text/css">
	.st0{fill:#0A001E;}
	.st1{fill:none;stroke:#003C64;stroke-width:2;stroke-miterlimit:10;vector-effect:non-scaling-stroke;}
	.st2{fill:#003C64;}
</style>
<g>
	<polygon class="st0" points="0,125 0,5 820,5 860,45 1060,45 1100,5 1920,5 1920,125 	"/>
	<polyline class="st1" points="1920,5 1100,5 1060,45 860,45 820,5 0,5 	"/>
	<polygon class="st2" points="815,0 425,0 420,5 820,5 	"/>
	<polygon class="st2" points="870,45 860,45 865.8,50 905,50 910,45 	"/>
	<polygon class="st2" points="1050,45 1060,45 1055,50 1015,50 1010,45 	"/>
	<polygon class="st2" points="1495,0 1105,0 1100,5 1500,5 	"/>
</g>
</svg>
